<svg width="20" height="20" viewBox="0 0 20 20" fill="none" xmlns="http://www.w3.org/2000/svg">
<path d="M2.74408 7.74408C2.5 7.98816 2.5 8.38099 2.5 9.16667V14.1667C2.5 14.9523 2.5 15.3452 2.74408 15.5893C2.98816 15.8333 3.38099 15.8333 4.16667 15.8333C4.95234 15.8333 5.34518 15.8333 5.58926 15.5893C5.83333 15.3452 5.83333 14.9523 5.83333 14.1667V9.16667C5.83333 8.38099 5.83333 7.98816 5.58926 7.74408C5.34518 7.5 4.95234 7.5 4.16667 7.5C3.38099 7.5 2.98816 7.5 2.74408 7.74408Z" fill="#6366F1"/>
<path opacity="0.4" d="M14.4108 1.91076C14.1667 2.15484 14.1667 2.54768 14.1667 3.33335V14.1667C14.1667 14.9524 14.1667 15.3452 14.4108 15.5893C14.6548 15.8334 15.0477 15.8334 15.8334 15.8334C16.619 15.8334 17.0119 15.8334 17.2559 15.5893C17.5 15.3452 17.5 14.9524 17.5 14.1667V3.33335C17.5 2.54768 17.5 2.15484 17.2559 1.91076C17.0119 1.66669 16.619 1.66669 15.8334 1.66669C15.0477 1.66669 14.6548 1.66669 14.4108 1.91076Z" fill="#A5B4FC"/>
<path opacity="0.7" d="M8.33331 5.83335C8.33331 5.04768 8.33331 4.65484 8.57739 4.41076C8.82147 4.16669 9.21431 4.16669 9.99998 4.16669C10.7857 4.16669 11.1785 4.16669 11.4226 4.41076C11.6666 4.65484 11.6666 5.04768 11.6666 5.83335V14.1667C11.6666 14.9524 11.6666 15.3452 11.4226 15.5893C11.1785 15.8334 10.7857 15.8334 9.99998 15.8334C9.21431 15.8334 8.82147 15.8334 8.57739 15.5893C8.33331 15.3452 8.33331 14.9524 8.33331 14.1667V5.83335Z" fill="#4F46E5"/>
<path d="M2.5 17.7083C2.15482 17.7083 1.875 17.9881 1.875 18.3333C1.875 18.6785 2.15482 18.9583 2.5 18.9583H17.5C17.8452 18.9583 18.125 18.6785 18.125 18.3333C18.125 17.9881 17.8452 17.7083 17.5 17.7083H2.5Z" fill="#4F46E5"/>
</svg>
