<svg width="20" height="20" viewBox="0 0 20 20" fill="none" xmlns="http://www.w3.org/2000/svg">
<g opacity="0.5">
<path d="M5.00002 10.8333H15C16.5714 10.8333 17.357 10.8333 17.8452 11.3215C18.3334 11.8096 18.3334 12.5953 18.3334 14.1667C18.3334 15.738 18.3334 16.5237 17.8452 17.0118C17.357 17.5 16.5714 17.5 15 17.5H5.00002C3.42867 17.5 2.643 17.5 2.15484 17.0118C1.66669 16.5237 1.66669 15.738 1.66669 14.1667C1.66669 12.5953 1.66669 11.8096 2.15484 11.3215C2.643 10.8333 3.42867 10.8333 5.00002 10.8333Z" fill="#A5B4FC"/>
<path d="M5.00002 2.5H15C16.5714 2.5 17.357 2.5 17.8452 2.98816C18.3334 3.47631 18.3334 4.26198 18.3334 5.83333C18.3334 7.40468 18.3334 8.19036 17.8452 8.67851C17.357 9.16667 16.5714 9.16667 15 9.16667H5.00002C3.42867 9.16667 2.643 9.16667 2.15484 8.67851C1.66669 8.19036 1.66669 7.40468 1.66669 5.83333C1.66669 4.26198 1.66669 3.47631 2.15484 2.98816C2.643 2.5 3.42867 2.5 5.00002 2.5Z" fill="#A5B4FC"/>
</g>
<path d="M8.54167 5.83331C8.54167 5.48814 8.82149 5.20831 9.16667 5.20831H15C15.3452 5.20831 15.625 5.48814 15.625 5.83331C15.625 6.17849 15.3452 6.45831 15 6.45831H9.16667C8.82149 6.45831 8.54167 6.17849 8.54167 5.83331Z" fill="#4F46E5"/>
<path d="M4.375 5.83331C4.375 5.48814 4.65482 5.20831 5 5.20831H6.66667C7.01184 5.20831 7.29167 5.48814 7.29167 5.83331C7.29167 6.17849 7.01184 6.45831 6.66667 6.45831H5C4.65482 6.45831 4.375 6.17849 4.375 5.83331Z" fill="#4F46E5"/>
<path d="M8.54167 14.1666C8.54167 13.8215 8.82149 13.5416 9.16667 13.5416H15C15.3452 13.5416 15.625 13.8215 15.625 14.1666C15.625 14.5118 15.3452 14.7916 15 14.7916H9.16667C8.82149 14.7916 8.54167 14.5118 8.54167 14.1666Z" fill="#4F46E5"/>
<path d="M4.375 14.1666C4.375 13.8215 4.65482 13.5416 5 13.5416H6.66667C7.01184 13.5416 7.29167 13.8215 7.29167 14.1666C7.29167 14.5118 7.01184 14.7916 6.66667 14.7916H5C4.65482 14.7916 4.375 14.5118 4.375 14.1666Z" fill="#4F46E5"/>
</svg>
