<svg width="20" height="20" viewBox="0 0 20 20" fill="none" xmlns="http://www.w3.org/2000/svg">
<path opacity="0.5" d="M8.33311 16.6666H11.6664C14.8091 16.6666 16.3805 16.6666 17.3568 15.6903C18.3331 14.714 18.3331 13.1427 18.3331 9.99998C18.3331 9.6317 18.3317 8.66 18.3302 8.33331H1.66665C1.66508 8.66 1.66645 9.6317 1.66645 9.99998C1.66645 13.1427 1.66645 14.714 2.64276 15.6903C3.61907 16.6666 5.19042 16.6666 8.33311 16.6666Z" fill="#A5B4FC"/>
<path d="M8.32906 3.33331H11.671C14.8218 3.33331 16.3972 3.33331 17.376 4.26313C18.0808 4.93261 18.2781 5.89587 18.3334 7.49998V8.33331H1.66669V7.49998C1.72194 5.89587 1.91927 4.93261 2.62403 4.26313C3.60286 3.33331 5.17826 3.33331 8.32906 3.33331Z" fill="#4F46E5"/>
<path d="M10.4167 12.7083C10.0715 12.7083 9.79167 12.9881 9.79167 13.3333C9.79167 13.6785 10.0715 13.9583 10.4167 13.9583H11.6667C12.0118 13.9583 12.2917 13.6785 12.2917 13.3333C12.2917 12.9881 12.0118 12.7083 11.6667 12.7083H10.4167Z" fill="#4F46E5"/>
<path d="M5 12.7083C4.65482 12.7083 4.375 12.9881 4.375 13.3333C4.375 13.6785 4.65482 13.9583 5 13.9583H8.33333C8.67851 13.9583 8.95833 13.6785 8.95833 13.3333C8.95833 12.9881 8.67851 12.7083 8.33333 12.7083H5Z" fill="#4F46E5"/>
</svg>
