<svg width="20" height="20" viewBox="0 0 20 20" fill="none" xmlns="http://www.w3.org/2000/svg">
<path opacity="0.5" d="M10.9217 18.3334H9.07829C6.20616 18.3334 4.7701 18.3334 3.79088 17.4902C2.81166 16.647 2.60857 15.2356 2.20239 12.4127L1.97008 10.7982C1.65388 8.6007 1.49577 7.50193 1.94616 6.56247C2.39654 5.62302 3.35518 5.05197 5.27245 3.90986L6.42648 3.22241C8.16756 2.18526 9.03809 1.66669 10 1.66669C10.9619 1.66669 11.8325 2.18526 13.5736 3.22241L14.7276 3.90986C16.6449 5.05197 17.6035 5.62302 18.0539 6.56247C18.5043 7.50193 18.3462 8.6007 18.03 10.7982L17.7977 12.4127C17.3915 15.2356 17.1884 16.647 16.2092 17.4902C15.2299 18.3334 13.7939 18.3334 10.9217 18.3334Z" fill="#A5B4FC"/>
<path d="M6.875 15C6.875 14.6548 7.15482 14.375 7.5 14.375H12.5C12.8452 14.375 13.125 14.6548 13.125 15C13.125 15.3452 12.8452 15.625 12.5 15.625H7.5C7.15482 15.625 6.875 15.3452 6.875 15Z" fill="#4F46E5"/>
</svg>
