<svg width="20" height="20" viewBox="0 0 20 20" fill="none" xmlns="http://www.w3.org/2000/svg">
<path opacity="0.5" d="M11.6667 3.33331H8.33335C5.19066 3.33331 3.61931 3.33331 2.643 4.30962C1.66669 5.28593 1.66669 6.85728 1.66669 9.99998C1.66669 13.1427 1.66669 14.714 2.643 15.6903C3.61931 16.6666 5.19066 16.6666 8.33335 16.6666H11.6667C14.8094 16.6666 16.3807 16.6666 17.357 15.6903C18.3334 14.714 18.3334 13.1427 18.3334 9.99998C18.3334 6.85728 18.3334 5.28593 17.357 4.30962C16.3807 3.33331 14.8094 3.33331 11.6667 3.33331Z" fill="#A5B4FC"/>
<path d="M11.0417 7.49998C11.0417 7.1548 11.3215 6.87498 11.6667 6.87498H15.8334C16.1785 6.87498 16.4584 7.1548 16.4584 7.49998C16.4584 7.84516 16.1785 8.12498 15.8334 8.12498H11.6667C11.3215 8.12498 11.0417 7.84516 11.0417 7.49998Z" fill="#4F46E5"/>
<path d="M11.875 9.99998C11.875 9.6548 12.1548 9.37498 12.5 9.37498H15.8334C16.1785 9.37498 16.4584 9.6548 16.4584 9.99998C16.4584 10.3452 16.1785 10.625 15.8334 10.625H12.5C12.1548 10.625 11.875 10.3452 11.875 9.99998Z" fill="#4F46E5"/>
<path d="M12.7084 12.5C12.7084 12.1548 12.9882 11.875 13.3334 11.875H15.8334C16.1785 11.875 16.4584 12.1548 16.4584 12.5C16.4584 12.8452 16.1785 13.125 15.8334 13.125H13.3334C12.9882 13.125 12.7084 12.8452 12.7084 12.5Z" fill="#4F46E5"/>
<path d="M7.50002 9.16665C8.4205 9.16665 9.16669 8.42045 9.16669 7.49998C9.16669 6.57951 8.4205 5.83331 7.50002 5.83331C6.57955 5.83331 5.83335 6.57951 5.83335 7.49998C5.83335 8.42045 6.57955 9.16665 7.50002 9.16665Z" fill="#4F46E5"/>
<path d="M7.50002 14.1666C10.8334 14.1666 10.8334 13.4205 10.8334 12.5C10.8334 11.5795 9.34097 10.8333 7.50002 10.8333C5.65907 10.8333 4.16669 11.5795 4.16669 12.5C4.16669 13.4205 4.16669 14.1666 7.50002 14.1666Z" fill="#4F46E5"/>
</svg>
