<svg width="20" height="20" viewBox="0 0 20 20" fill="none" xmlns="http://www.w3.org/2000/svg">
<path d="M7.5 14.375C7.15482 14.375 6.875 14.6548 6.875 15C6.875 15.3452 7.15482 15.625 7.5 15.625H12.5C12.8452 15.625 13.125 15.3452 13.125 15C13.125 14.6548 12.8452 14.375 12.5 14.375H7.5Z" fill="#737373"/>
<path fill-rule="evenodd" clip-rule="evenodd" d="M9.99992 1.04187C9.39571 1.04187 8.84443 1.2078 8.24099 1.48946C7.65685 1.76211 6.98136 2.1645 6.13478 2.66881L4.92177 3.39139C3.98918 3.94692 3.24605 4.3896 2.68338 4.8129C2.10253 5.24989 1.66658 5.69987 1.38248 6.29247C1.09824 6.88536 1.0212 7.50587 1.04592 8.23007C1.06983 8.93106 1.19246 9.78325 1.34622 10.8518L1.58985 12.5449C1.78768 13.9199 1.94466 15.0109 2.17919 15.8603C2.42095 16.736 2.76397 17.431 3.38296 17.964C4.00145 18.4965 4.74146 18.7347 5.64688 18.8483C6.52621 18.9586 7.63559 18.9585 9.03518 18.9585H10.9646C12.3642 18.9585 13.4736 18.9586 14.353 18.8483C15.2584 18.7347 15.9984 18.4965 16.6169 17.964C17.2359 17.431 17.5789 16.736 17.8207 15.8603C18.0552 15.0109 18.2122 13.9199 18.41 12.545L18.6536 10.8517C18.8074 9.78324 18.93 8.93105 18.9539 8.23007C18.9786 7.50587 18.9016 6.88536 18.6174 6.29247C18.3333 5.69987 17.8973 5.24989 17.3165 4.8129C16.7538 4.3896 16.0107 3.94692 15.0781 3.3914L13.8651 2.66881C13.0185 2.1645 12.343 1.76211 11.7589 1.48946C11.1554 1.2078 10.6041 1.04187 9.99992 1.04187ZM6.74624 3.75955C7.62749 3.23459 8.24928 2.86505 8.76968 2.62215C9.27726 2.38523 9.64222 2.29187 9.99992 2.29187C10.3576 2.29187 10.7226 2.38523 11.2302 2.62215C11.7506 2.86504 12.3724 3.23459 13.2536 3.75954L14.4076 4.44699C15.3779 5.02497 16.0626 5.43382 16.565 5.81179C17.0554 6.18072 17.3239 6.48599 17.4902 6.83284C17.6563 7.17941 17.7255 7.57801 17.7047 8.18744C17.6833 8.81232 17.5713 9.59713 17.4112 10.7094L17.1789 12.3239C16.9735 13.7515 16.8267 14.7637 16.6157 15.5277C16.4096 16.2743 16.1615 16.7066 15.8013 17.0167C15.4405 17.3274 14.9729 17.5107 14.1974 17.608C13.4049 17.7074 12.3739 17.7085 10.9217 17.7085H9.0782C7.62596 17.7085 6.59497 17.7074 5.80242 17.608C5.02697 17.5107 4.55933 17.3274 4.1986 17.0167C3.83837 16.7066 3.59024 16.2743 3.3841 15.5277C3.17318 14.7637 3.02634 13.7515 2.82092 12.3239L2.58861 10.7094C2.42857 9.59712 2.31651 8.81231 2.29519 8.18744C2.27439 7.57801 2.3435 7.17941 2.50964 6.83284C2.67593 6.48599 2.94448 6.18072 3.43487 5.81179C3.93727 5.43382 4.62195 5.02498 5.59221 4.447L6.74624 3.75955Z" fill="#737373"/>
</svg>
