<svg width="18" height="16" viewBox="0 0 18 16" fill="none" xmlns="http://www.w3.org/2000/svg">
<path id="Vector (Stroke)" fill-rule="evenodd" clip-rule="evenodd" d="M7.28631 0.708313H10.7137C12.2451 0.7083 13.4582 0.70829 14.4075 0.835926C15.3845 0.967282 16.1753 1.24405 16.799 1.86768C17.4226 2.49132 17.6994 3.28211 17.8307 4.25913C17.9061 4.81985 17.937 5.47256 17.9496 6.22854C17.9553 6.26261 17.9583 6.29761 17.9583 6.33331C17.9583 6.36269 17.9563 6.39159 17.9524 6.41989C17.9583 6.89133 17.9583 7.40151 17.9583 7.95297V8.04699C17.9583 9.57846 17.9583 10.7915 17.8307 11.7408C17.6994 12.7179 17.4226 13.5086 16.799 14.1323C16.1753 14.7559 15.3845 15.0327 14.4075 15.164C13.4582 15.2917 12.2451 15.2917 10.7137 15.2916H7.28631C5.75485 15.2917 4.54182 15.2917 3.59247 15.164C2.61545 15.0327 1.82466 14.7559 1.20103 14.1323C0.57739 13.5086 0.300626 12.7179 0.169269 11.7408C0.041633 10.7915 0.0416436 9.57846 0.0416568 8.04699V7.95297C0.041652 7.4015 0.0416476 6.89132 0.0476034 6.41988C0.0436832 6.39158 0.0416571 6.36269 0.0416571 6.33331C0.0416571 6.29762 0.0446497 6.26262 0.0503977 6.22856C0.0630248 5.47257 0.0938814 4.81985 0.169269 4.25913C0.300626 3.28211 0.57739 2.49132 1.20103 1.86768C1.82466 1.24405 2.61545 0.967282 3.59247 0.835926C4.54182 0.70829 5.75484 0.7083 7.28631 0.708313ZM1.29331 6.95831C1.29173 7.28197 1.29166 7.6284 1.29166 7.99998C1.29166 9.589 1.29298 10.7179 1.40812 11.5743C1.52084 12.4127 1.73223 12.8957 2.08491 13.2484C2.43758 13.6011 2.92062 13.8125 3.75903 13.9252C4.61542 14.0403 5.74431 14.0416 7.33332 14.0416H10.6667C12.2557 14.0416 13.3846 14.0403 14.2409 13.9252C15.0794 13.8125 15.5624 13.6011 15.9151 13.2484C16.2677 12.8957 16.4791 12.4127 16.5919 11.5743C16.707 10.7179 16.7083 9.589 16.7083 7.99998C16.7083 7.6284 16.7082 7.28197 16.7067 6.95831H1.29331ZM16.6866 5.70831H1.31339C1.32969 5.21937 1.35821 4.79693 1.40812 4.42569C1.52084 3.58728 1.73223 3.10424 2.08491 2.75157C2.43758 2.39889 2.92062 2.1875 3.75903 2.07478C4.61542 1.95964 5.74431 1.95831 7.33332 1.95831H10.6667C12.2557 1.95831 13.3846 1.95964 14.2409 2.07478C15.0794 2.1875 15.5624 2.39889 15.9151 2.75157C16.2677 3.10424 16.4791 3.58728 16.5919 4.42569C16.6418 4.79693 16.6703 5.21937 16.6866 5.70831ZM3.37499 11.3333C3.37499 10.9881 3.65481 10.7083 3.99999 10.7083H7.33332C7.6785 10.7083 7.95832 10.9881 7.95832 11.3333C7.95832 11.6785 7.6785 11.9583 7.33332 11.9583H3.99999C3.65481 11.9583 3.37499 11.6785 3.37499 11.3333ZM8.79166 11.3333C8.79166 10.9881 9.07148 10.7083 9.41666 10.7083H10.6667C11.0118 10.7083 11.2917 10.9881 11.2917 11.3333C11.2917 11.6785 11.0118 11.9583 10.6667 11.9583H9.41666C9.07148 11.9583 8.79166 11.6785 8.79166 11.3333Z" fill="#737373"/>
</svg>
