<svg width="18" height="18" viewBox="0 0 18 18" fill="none" xmlns="http://www.w3.org/2000/svg">
<g id="Vector">
<path fill-rule="evenodd" clip-rule="evenodd" d="M0.873973 0.910367C0.548334 0.795879 0.191541 0.96705 0.0770537 1.29269C-0.0374341 1.61833 0.133737 1.97512 0.459376 2.08961L0.67705 2.16614C1.23339 2.36174 1.59902 2.49136 1.86805 2.62337C2.12074 2.74735 2.23213 2.84771 2.30552 2.9551C2.38073 3.06517 2.43882 3.21635 2.4716 3.51915C2.50589 3.83598 2.50674 4.24867 2.50674 4.86529V7.13332C2.50674 8.34376 2.5181 9.21656 2.63231 9.8834C2.75425 10.5953 2.99769 11.105 3.45288 11.5851C3.94777 12.1071 4.57511 12.3344 5.32197 12.4403C6.03716 12.5417 6.94537 12.5417 8.0668 12.5417L12.5716 12.5417C13.1896 12.5417 13.7097 12.5417 14.1305 12.4902C14.5769 12.4356 14.9841 12.3161 15.3395 12.0265C15.6949 11.7369 15.8941 11.3622 16.0377 10.936C16.1731 10.5342 16.2781 10.0249 16.4028 9.41954L16.8269 7.36178L16.8277 7.35795L16.8364 7.31438C16.9737 6.62697 17.0891 6.04873 17.1178 5.58364C17.148 5.09514 17.0924 4.61346 16.7741 4.1998C16.5783 3.94528 16.303 3.8012 16.0526 3.71321C15.7972 3.62347 15.5084 3.57155 15.217 3.53897C14.6444 3.47497 13.9489 3.47498 13.2667 3.47499L3.72324 3.47499C3.7205 3.44436 3.71754 3.41424 3.71434 3.38463C3.66956 2.97098 3.57255 2.59371 3.33756 2.24985C3.10075 1.90329 2.78587 1.68135 2.41868 1.50118C2.07527 1.33268 1.63891 1.17928 1.12514 0.998671L0.873973 0.910367ZM3.75673 4.72499H13.2407C13.9543 4.72499 14.5824 4.72582 15.0781 4.78123C15.3244 4.80876 15.5087 4.84702 15.6383 4.89253C15.7441 4.92972 15.7799 4.9601 15.7851 4.9645C15.7853 4.96468 15.785 4.9644 15.7851 4.9645C15.8362 5.03234 15.8919 5.15542 15.8702 5.50663C15.8474 5.87627 15.7503 6.36982 15.6023 7.11143L15.6019 7.11328L15.1862 9.13004C15.0518 9.78241 14.9613 10.216 14.8532 10.5368C14.7506 10.8413 14.6542 10.9724 14.5499 11.0575C14.4455 11.1425 14.2976 11.2104 13.9786 11.2494C13.6427 11.2906 13.1997 11.2917 12.5336 11.2917H8.11457C6.93392 11.2917 6.1147 11.2902 5.49747 11.2027C4.9018 11.1182 4.58711 10.9647 4.35999 10.7251C4.09319 10.4437 3.94928 10.1682 3.86437 9.67238C3.77173 9.13153 3.75674 8.37419 3.75674 7.13332L3.75673 4.72499Z" fill="#737373"/>
<path fill-rule="evenodd" clip-rule="evenodd" d="M5.25001 17.125C4.21447 17.125 3.37501 16.2855 3.37501 15.25C3.37501 14.2145 4.21447 13.375 5.25001 13.375C6.28554 13.375 7.12501 14.2145 7.12501 15.25C7.12501 16.2855 6.28554 17.125 5.25001 17.125ZM4.62501 15.25C4.62501 15.5952 4.90483 15.875 5.25001 15.875C5.59519 15.875 5.87501 15.5952 5.87501 15.25C5.87501 14.9048 5.59519 14.625 5.25001 14.625C4.90483 14.625 4.62501 14.9048 4.62501 15.25Z" fill="#737373"/>
<path fill-rule="evenodd" clip-rule="evenodd" d="M12.75 17.125C11.7145 17.125 10.875 16.2856 10.875 15.25C10.875 14.2145 11.7145 13.375 12.75 13.375C13.7855 13.375 14.625 14.2145 14.625 15.25C14.625 16.2856 13.7855 17.125 12.75 17.125ZM12.125 15.25C12.125 15.5952 12.4048 15.875 12.75 15.875C13.0952 15.875 13.375 15.5952 13.375 15.25C13.375 14.9049 13.0952 14.625 12.75 14.625C12.4048 14.625 12.125 14.9049 12.125 15.25Z" fill="#737373"/>
</g>
</svg>
