<svg width="18" height="18" viewBox="0 0 18 18" fill="none" xmlns="http://www.w3.org/2000/svg">
<g id="Vector">
<path fill-rule="evenodd" clip-rule="evenodd" d="M14.796 0.0416899C14.4354 0.0416474 14.1047 0.0416084 13.8357 0.0777758C13.5394 0.117603 13.2263 0.211309 12.9688 0.468829C12.7113 0.726348 12.6176 1.03945 12.5778 1.33569C12.5416 1.60469 12.5416 1.93538 12.5417 2.29606V13.204C12.5416 13.5647 12.5416 13.8954 12.5778 14.1644C12.6176 14.4606 12.7113 14.7737 12.9688 15.0312C13.2263 15.2887 13.5394 15.3825 13.8357 15.4223C14.1047 15.4584 14.4354 15.4584 14.7961 15.4584H14.8706C15.2313 15.4584 15.562 15.4584 15.831 15.4223C16.1272 15.3825 16.4404 15.2887 16.6979 15.0312C16.9554 14.7737 17.0491 14.4606 17.0889 14.1644C17.1251 13.8954 17.1251 13.5647 17.125 13.204V2.29607C17.1251 1.93539 17.1251 1.6047 17.0889 1.33569C17.0491 1.03945 16.9554 0.726348 16.6979 0.468829C16.4404 0.211309 16.1272 0.117603 15.831 0.0777758C15.562 0.0416084 15.2313 0.0416474 14.8706 0.0416899H14.796ZM13.8547 1.35158L13.8527 1.35272L13.8516 1.35475C13.8507 1.35636 13.8494 1.35913 13.8476 1.36333C13.8402 1.38148 13.8274 1.42178 13.8166 1.50225C13.793 1.67785 13.7917 1.92285 13.7917 2.33336V13.1667C13.7917 13.5772 13.793 13.8222 13.8166 13.9978C13.8274 14.0783 13.8402 14.1186 13.8476 14.1367C13.8494 14.1409 13.8507 14.1437 13.8516 14.1453L13.8527 14.1473L13.8547 14.1485C13.8554 14.1488 13.8563 14.1493 13.8574 14.1498C13.8589 14.1505 13.8609 14.1514 13.8633 14.1524C13.8815 14.1599 13.9218 14.1726 14.0022 14.1834C14.1778 14.207 14.4228 14.2084 14.8333 14.2084C15.2438 14.2084 15.4889 14.207 15.6645 14.1834C15.7449 14.1726 15.7852 14.1599 15.8034 14.1524C15.8076 14.1507 15.8103 14.1493 15.8119 14.1485L15.814 14.1473L15.8151 14.1453C15.816 14.1437 15.8173 14.1409 15.819 14.1367C15.8265 14.1186 15.8393 14.0783 15.8501 13.9978C15.8737 13.8222 15.875 13.5772 15.875 13.1667V2.33336C15.875 1.92285 15.8737 1.67785 15.8501 1.50225C15.8393 1.42178 15.8265 1.38148 15.819 1.36333C15.8173 1.35913 15.816 1.35636 15.8151 1.35475L15.814 1.35272L15.8119 1.35158C15.8103 1.35074 15.8076 1.34939 15.8034 1.34766C15.7852 1.34019 15.7449 1.32745 15.6645 1.31663C15.4889 1.29302 15.2438 1.29169 14.8333 1.29169C14.4228 1.29169 14.1778 1.29302 14.0022 1.31663C13.9218 1.32745 13.8815 1.34019 13.8633 1.34766C13.8591 1.34939 13.8563 1.35074 13.8547 1.35158Z" fill="#737373"/>
<path fill-rule="evenodd" clip-rule="evenodd" d="M8.96272 2.54169H9.0373C9.39798 2.54165 9.72867 2.54161 9.99768 2.57778C10.2939 2.6176 10.607 2.71131 10.8645 2.96883C11.1221 3.22635 11.2158 3.53945 11.2556 3.83569C11.2918 4.10469 11.2917 4.43538 11.2917 4.79605V13.204C11.2917 13.5647 11.2918 13.8954 11.2556 14.1644C11.2158 14.4606 11.1221 14.7737 10.8645 15.0312C10.607 15.2887 10.2939 15.3824 9.99768 15.4223C9.72868 15.4584 9.39801 15.4584 9.03735 15.4584H8.96272C8.60206 15.4584 8.27133 15.4584 8.00233 15.4223C7.7061 15.3824 7.39299 15.2887 7.13548 15.0312C6.87796 14.7737 6.78425 14.4606 6.74442 14.1644C6.70825 13.8954 6.70829 13.5647 6.70834 13.204V4.79607C6.70829 4.43539 6.70825 4.1047 6.74442 3.83569C6.78425 3.53945 6.87796 3.22635 7.13548 2.96883C7.39299 2.71131 7.7061 2.6176 8.00233 2.57778C8.27134 2.54161 8.60204 2.54165 8.96272 2.54169ZM8.01937 3.85272L8.0214 3.85158L8.01946 14.1474L8.01822 14.1453C8.01738 14.1437 8.01603 14.1409 8.0143 14.1367C8.00684 14.1186 7.99409 14.0783 7.98328 13.9978C7.95967 13.8222 7.95834 13.5772 7.95834 13.1667V4.83336C7.95834 4.42285 7.95967 4.17785 7.98328 4.00225C7.99409 3.92178 8.00684 3.88148 8.0143 3.86333C8.01603 3.85913 8.01738 3.85636 8.01822 3.85475L8.01937 3.85272ZM8.01946 14.1474L8.0214 3.85158L8.02458 3.85002L8.02998 3.84766C8.04813 3.84019 8.08843 3.82745 8.16889 3.81663C8.34449 3.79302 8.5895 3.79169 9.00001 3.79169C9.41051 3.79169 9.65552 3.79302 9.83112 3.81663C9.91158 3.82745 9.95189 3.84019 9.97004 3.84766C9.97424 3.84939 9.977 3.85074 9.97861 3.85158L9.98064 3.85272L9.98179 3.85475C9.98263 3.85636 9.98398 3.85913 9.98571 3.86333C9.99317 3.88148 10.0059 3.92178 10.0167 4.00225C10.0403 4.17785 10.0417 4.42285 10.0417 4.83336V13.1667C10.0417 13.5772 10.0403 13.8222 10.0167 13.9978C10.0059 14.0783 9.99317 14.1186 9.98571 14.1367C9.98398 14.1409 9.98263 14.1437 9.98179 14.1453L9.98064 14.1473L9.97861 14.1485C9.97755 14.149 9.97599 14.1498 9.97384 14.1508C9.97273 14.1513 9.97147 14.1518 9.97004 14.1524C9.95189 14.1599 9.91158 14.1726 9.83112 14.1834C9.65552 14.207 9.41051 14.2084 9.00001 14.2084C8.5895 14.2084 8.34449 14.207 8.16889 14.1834C8.08843 14.1726 8.04813 14.1599 8.02998 14.1524C8.02577 14.1507 8.02301 14.1493 8.0214 14.1485L8.01946 14.1474Z" fill="#737373"/>
<path fill-rule="evenodd" clip-rule="evenodd" d="M3.12938 5.87502C2.7687 5.87498 2.43801 5.87494 2.169 5.91111C1.87277 5.95094 1.55966 6.04464 1.30214 6.30216C1.04462 6.55968 0.950916 6.87279 0.911089 7.16902C0.874921 7.43803 0.87496 7.76872 0.875003 8.1294V13.204C0.87496 13.5647 0.874921 13.8954 0.911089 14.1644C0.950916 14.4606 1.04462 14.7737 1.30214 15.0312C1.55966 15.2887 1.87277 15.3824 2.169 15.4223C2.43801 15.4584 2.7687 15.4584 3.12939 15.4584H3.20396C3.56464 15.4584 3.89534 15.4584 4.16435 15.4223C4.46058 15.3824 4.77368 15.2887 5.0312 15.0312C5.28872 14.7737 5.38243 14.4606 5.42226 14.1644C5.45842 13.8954 5.45838 13.5647 5.45834 13.204V8.12941C5.45838 7.76873 5.45842 7.43803 5.42226 7.16902C5.38243 6.87279 5.28872 6.55968 5.0312 6.30216C4.77368 6.04464 4.46058 5.95094 4.16435 5.91111C3.89534 5.87494 3.56464 5.87498 3.20396 5.87502H3.12938ZM2.18807 7.18491L2.18604 7.18606L2.18489 7.18809C2.18405 7.1897 2.1827 7.19246 2.18097 7.19666C2.1735 7.21481 2.16076 7.25511 2.14994 7.33558C2.12633 7.51118 2.12501 7.75619 2.12501 8.16669V13.1667C2.12501 13.5772 2.12633 13.8222 2.14994 13.9978C2.16076 14.0783 2.1735 14.1186 2.18097 14.1367C2.1827 14.1409 2.18405 14.1437 2.18489 14.1453L2.1857 14.1468L2.18807 14.1485C2.18968 14.1493 2.19244 14.1507 2.19664 14.1524C2.21479 14.1599 2.25509 14.1726 2.33556 14.1834C2.51116 14.207 2.75617 14.2084 3.16667 14.2084C3.57718 14.2084 3.82218 14.207 3.99779 14.1834C4.07825 14.1726 4.11855 14.1599 4.1367 14.1524C4.14091 14.1507 4.14367 14.1493 4.14528 14.1485L4.14731 14.1473L4.14846 14.1453L4.1503 14.1415L4.15237 14.1367C4.15984 14.1186 4.17258 14.0783 4.1834 13.9978C4.20701 13.8222 4.20834 13.5772 4.20834 13.1667V8.16669C4.20834 7.75619 4.20701 7.51118 4.1834 7.33558C4.17258 7.25511 4.15984 7.21481 4.15237 7.19666C4.15064 7.19246 4.1493 7.1897 4.14846 7.18809L4.14731 7.18606L4.14528 7.18491C4.14367 7.18407 4.14091 7.18272 4.1367 7.18099C4.11855 7.17352 4.07825 7.16078 3.99779 7.14996C3.82218 7.12635 3.57718 7.12503 3.16667 7.12503C2.75617 7.12503 2.51116 7.12635 2.33556 7.14996C2.25509 7.16078 2.21479 7.17352 2.19664 7.18099C2.19244 7.18272 2.18968 7.18407 2.18807 7.18491Z" fill="#737373"/>
<path d="M1.50001 16.7084C1.15483 16.7084 0.875006 16.9882 0.875006 17.3334C0.875006 17.6785 1.15483 17.9584 1.50001 17.9584H16.5C16.8452 17.9584 17.125 17.6785 17.125 17.3334C17.125 16.9882 16.8452 16.7084 16.5 16.7084H1.50001Z" fill="#737373"/>
</g>
</svg>
