<svg width="18" height="18" viewBox="0 0 18 18" fill="none" xmlns="http://www.w3.org/2000/svg">
<path id="Vector (Stroke)" fill-rule="evenodd" clip-rule="evenodd" d="M3.95666 0.25H14.0433C14.7921 0.249976 15.4164 0.249955 15.9121 0.316594C16.4352 0.386931 16.9076 0.541656 17.2871 0.921215C17.6667 1.30077 17.8214 1.77311 17.8917 2.29627C17.9584 2.79192 17.9583 3.41627 17.9583 4.16501V4.25166C17.9583 5.0004 17.9584 5.62475 17.8917 6.1204C17.8214 6.64356 17.6667 7.1159 17.2871 7.49545C16.9076 7.87501 16.4352 8.02974 15.9121 8.10007C15.4164 8.16671 14.7921 8.16669 14.0433 8.16667H3.95666C3.20793 8.16669 2.58358 8.16671 2.08793 8.10007C1.56476 8.02974 1.09243 7.87501 0.712872 7.49545C0.333314 7.1159 0.178588 6.64356 0.108251 6.1204C0.0416125 5.62475 0.0416329 5.0004 0.0416574 4.25167V4.165C0.0416329 3.41627 0.0416125 2.79192 0.108251 2.29627C0.178588 1.77311 0.333314 1.30077 0.712872 0.921215C1.09243 0.541656 1.56476 0.386931 2.08793 0.316594C2.58358 0.249955 3.20793 0.249976 3.95666 0.25ZM2.25449 1.55545C1.86993 1.60715 1.70535 1.6965 1.59676 1.8051C1.48816 1.9137 1.39881 2.07828 1.3471 2.46283C1.29299 2.86536 1.29166 3.40499 1.29166 4.20833C1.29166 5.01168 1.29299 5.55131 1.3471 5.95384C1.39881 6.33839 1.48816 6.50297 1.59676 6.61157C1.70535 6.72017 1.86993 6.80952 2.25448 6.86122C2.65702 6.91534 3.19665 6.91667 3.99999 6.91667H14C14.8033 6.91667 15.343 6.91534 15.7455 6.86122C16.13 6.80952 16.2946 6.72017 16.4032 6.61157C16.5118 6.50297 16.6012 6.33839 16.6529 5.95384C16.707 5.55131 16.7083 5.01168 16.7083 4.20833C16.7083 3.40499 16.707 2.86536 16.6529 2.46283C16.6012 2.07828 16.5118 1.9137 16.4032 1.8051C16.2946 1.6965 16.13 1.60715 15.7455 1.55545C15.343 1.50133 14.8033 1.5 14 1.5H3.99999C3.19665 1.5 2.65702 1.50133 2.25449 1.55545ZM3.37499 4.20833C3.37499 3.86316 3.65481 3.58333 3.99999 3.58333H5.66666C6.01184 3.58333 6.29166 3.86316 6.29166 4.20833C6.29166 4.55351 6.01184 4.83333 5.66666 4.83333H3.99999C3.65481 4.83333 3.37499 4.55351 3.37499 4.20833ZM7.54166 4.20833C7.54166 3.86316 7.82148 3.58333 8.16666 3.58333H14C14.3452 3.58333 14.625 3.86316 14.625 4.20833C14.625 4.55351 14.3452 4.83333 14 4.83333H8.16666C7.82148 4.83333 7.54166 4.55351 7.54166 4.20833ZM3.95666 9.41667H14.0433C14.7921 9.41664 15.4164 9.41662 15.9121 9.48326C16.4352 9.5536 16.9076 9.70832 17.2871 10.0879C17.6667 10.4674 17.8214 10.9398 17.8917 11.4629C17.9584 11.9586 17.9583 12.5829 17.9583 13.3317V13.4183C17.9583 14.1671 17.9584 14.7914 17.8917 15.2871C17.8214 15.8102 17.6667 16.2826 17.2871 16.6621C16.9076 17.0417 16.4352 17.1964 15.9121 17.2667C15.4164 17.3334 14.7921 17.3334 14.0433 17.3333H3.95666C3.20793 17.3334 2.58358 17.3334 2.08793 17.2667C1.56476 17.1964 1.09243 17.0417 0.712872 16.6621C0.333314 16.2826 0.178588 15.8102 0.108251 15.2871C0.0416125 14.7914 0.0416329 14.1671 0.0416574 13.4183V13.3317C0.0416329 12.5829 0.0416125 11.9586 0.108251 11.4629C0.178588 10.9398 0.333314 10.4674 0.712872 10.0879C1.09243 9.70832 1.56476 9.5536 2.08793 9.48326C2.58358 9.41662 3.20793 9.41664 3.95666 9.41667ZM2.25449 10.7221C1.86993 10.7738 1.70535 10.8632 1.59676 10.9718C1.48816 11.0804 1.39881 11.2449 1.3471 11.6295C1.29299 12.032 1.29166 12.5717 1.29166 13.375C1.29166 14.1783 1.29299 14.718 1.3471 15.1205C1.39881 15.5051 1.48816 15.6696 1.59676 15.7782C1.70535 15.8868 1.86993 15.9762 2.25449 16.0279C2.65702 16.082 3.19665 16.0833 3.99999 16.0833H14C14.8033 16.0833 15.343 16.082 15.7455 16.0279C16.13 15.9762 16.2946 15.8868 16.4032 15.7782C16.5118 15.6696 16.6012 15.5051 16.6529 15.1205C16.707 14.718 16.7083 14.1783 16.7083 13.375C16.7083 12.5717 16.707 12.032 16.6529 11.6295C16.6012 11.2449 16.5118 11.0804 16.4032 10.9718C16.2946 10.8632 16.13 10.7738 15.7455 10.7221C15.343 10.668 14.8033 10.6667 14 10.6667H3.99999C3.19665 10.6667 2.65702 10.668 2.25449 10.7221ZM3.37499 13.375C3.37499 13.0298 3.65481 12.75 3.99999 12.75H5.66666C6.01184 12.75 6.29166 13.0298 6.29166 13.375C6.29166 13.7202 6.01184 14 5.66666 14H3.99999C3.65481 14 3.37499 13.7202 3.37499 13.375ZM7.54166 13.375C7.54166 13.0298 7.82148 12.75 8.16666 12.75H14C14.3452 12.75 14.625 13.0298 14.625 13.375C14.625 13.7202 14.3452 14 14 14H8.16666C7.82148 14 7.54166 13.7202 7.54166 13.375Z" fill="#737373"/>
</svg>
