<svg width="20" height="20" viewBox="0 0 20 20" fill="none" xmlns="http://www.w3.org/2000/svg">
<path opacity="0.5" d="M10.8333 12.8334C10.8333 11.1049 10.8333 10.2406 11.3825 9.70366C11.9317 9.16669 12.8155 9.16669 14.5833 9.16669C16.3511 9.16669 17.235 9.16669 17.7841 9.70366C18.3333 10.2406 18.3333 11.1049 18.3333 12.8334V14.6667C18.3333 16.3952 18.3333 17.2594 17.7841 17.7964C17.235 18.3334 16.3511 18.3334 14.5833 18.3334C12.8155 18.3334 11.9317 18.3334 11.3825 17.7964C10.8333 17.2594 10.8333 16.3952 10.8333 14.6667V12.8334Z" fill="#A5B4FC"/>
<path d="M1.66669 7.16669C1.66669 8.89517 1.66669 9.75941 2.21586 10.2964C2.76504 10.8334 3.64892 10.8334 5.41669 10.8334C7.18445 10.8334 8.06834 10.8334 8.61751 10.2964C9.16669 9.75941 9.16669 8.89517 9.16669 7.16669V5.33335C9.16669 3.60487 9.16669 2.74063 8.61751 2.20366C8.06834 1.66669 7.18445 1.66669 5.41669 1.66669C3.64892 1.66669 2.76504 1.66669 2.21586 2.20366C1.66669 2.74063 1.66669 3.60487 1.66669 5.33335V7.16669Z" fill="#4F46E5"/>
<path d="M10.8333 4.58335C10.8333 3.67736 10.8333 3.22436 10.976 2.86702C11.1663 2.39058 11.5314 2.01205 11.9908 1.8147C12.3354 1.66669 12.7722 1.66669 13.6458 1.66669H15.5208C16.3945 1.66669 16.8313 1.66669 17.1758 1.8147C17.6353 2.01205 18.0003 2.39058 18.1906 2.86702C18.3333 3.22436 18.3333 3.67736 18.3333 4.58335C18.3333 5.48935 18.3333 5.94235 18.1906 6.29968C18.0003 6.77613 17.6353 7.15466 17.1758 7.35201C16.8313 7.50002 16.3945 7.50002 15.5208 7.50002H13.6458C12.7722 7.50002 12.3354 7.50002 11.9908 7.35201C11.5314 7.15466 11.1663 6.77613 10.976 6.29968C10.8333 5.94235 10.8333 5.48935 10.8333 4.58335Z" fill="#4F46E5"/>
<path opacity="0.5" d="M1.66669 15.4167C1.66669 16.3227 1.66669 16.7757 1.80941 17.133C1.99971 17.6094 2.36473 17.988 2.82416 18.1853C3.16873 18.3333 3.60555 18.3333 4.47919 18.3333H6.35419C7.22783 18.3333 7.66465 18.3333 8.00922 18.1853C8.46865 17.988 8.83366 17.6094 9.02396 17.133C9.16669 16.7757 9.16669 16.3227 9.16669 15.4167C9.16669 14.5107 9.16669 14.0577 9.02396 13.7003C8.83366 13.2239 8.46865 12.8454 8.00922 12.648C7.66465 12.5 7.22783 12.5 6.35419 12.5H4.47919C3.60555 12.5 3.16873 12.5 2.82416 12.648C2.36473 12.8454 1.99971 13.2239 1.80941 13.7003C1.66669 14.0577 1.66669 14.5107 1.66669 15.4167Z" fill="#A5B4FC"/>
</svg>
