<svg width="20" height="20" viewBox="0 0 20 20" fill="none" xmlns="http://www.w3.org/2000/svg">
<path fill-rule="evenodd" clip-rule="evenodd" d="M4.95666 1.45831C4.20794 1.45829 3.58357 1.45827 3.08793 1.52491C2.56476 1.59525 2.09243 1.74997 1.71287 2.12953C1.33331 2.50909 1.17859 2.98142 1.10825 3.50458C1.04161 4.00023 1.04163 4.62457 1.04166 5.37329V7.12665C1.04163 7.87537 1.04161 8.49974 1.10825 8.99538C1.17859 9.51854 1.33331 9.99088 1.71287 10.3704C2.09243 10.75 2.56476 10.9047 3.08793 10.9751C3.58357 11.0417 4.20791 11.0417 4.95664 11.0417H5.04332C5.79204 11.0417 6.41641 11.0417 6.91206 10.9751C7.43522 10.9047 7.90755 10.75 8.28711 10.3704C8.66667 9.99088 8.8214 9.51854 8.89173 8.99538C8.95837 8.49974 8.95835 7.87539 8.95833 7.12667V5.37332C8.95835 4.6246 8.95837 4.00023 8.89173 3.50458C8.8214 2.98142 8.66667 2.50909 8.28711 2.12953C7.90755 1.74997 7.43522 1.59525 6.91206 1.52491C6.41641 1.45827 5.79207 1.45829 5.04335 1.45831H4.95666ZM2.59676 3.01341C2.70535 2.90482 2.86993 2.81546 3.25449 2.76376C3.65702 2.70964 4.19665 2.70832 4.99999 2.70832C5.80334 2.70832 6.34297 2.70964 6.7455 2.76376C7.13005 2.81546 7.29463 2.90482 7.40323 3.01341C7.51183 3.12201 7.60118 3.28659 7.65288 3.67114C7.707 4.07367 7.70833 4.61331 7.70833 5.41665V7.08332C7.70833 7.88666 7.707 8.42629 7.65288 8.82882C7.60118 9.21337 7.51183 9.37796 7.40323 9.48655C7.29463 9.59515 7.13005 9.6845 6.7455 9.7362C6.34297 9.79032 5.80334 9.79165 4.99999 9.79165C4.19665 9.79165 3.65702 9.79032 3.25449 9.7362C2.86993 9.6845 2.70535 9.59515 2.59676 9.48655C2.48816 9.37796 2.39881 9.21337 2.34711 8.82882C2.29299 8.42629 2.29166 7.88666 2.29166 7.08332V5.41665C2.29166 4.61331 2.29299 4.07367 2.34711 3.67114C2.39881 3.28659 2.48816 3.12201 2.59676 3.01341Z" fill="#737373"/>
<path fill-rule="evenodd" clip-rule="evenodd" d="M14.54 8.95832C13.7913 8.95829 13.1669 8.95827 12.6713 9.02491C12.1481 9.09525 11.6758 9.24997 11.2962 9.62953C10.9166 10.0091 10.7619 10.4814 10.6916 11.0046C10.6249 11.5002 10.625 12.1246 10.625 12.8733V14.6267C10.625 15.3754 10.6249 15.9997 10.6916 16.4954C10.7619 17.0185 10.9166 17.4909 11.2962 17.8704C11.6758 18.25 12.1481 18.4047 12.6713 18.4751C13.1669 18.5417 13.7912 18.5417 14.5399 18.5417H14.6267C15.3754 18.5417 15.9998 18.5417 16.4954 18.4751C17.0186 18.4047 17.4909 18.25 17.8704 17.8704C18.25 17.4909 18.4047 17.0185 18.4751 16.4954C18.5417 15.9998 18.5417 15.3754 18.5417 14.6267V12.8733C18.5417 12.1246 18.5417 11.5002 18.4751 11.0046C18.4047 10.4814 18.25 10.0091 17.8704 9.62953C17.4909 9.24997 17.0186 9.09525 16.4954 9.02491C15.9997 8.95827 15.3754 8.95829 14.6267 8.95832H14.54ZM12.1801 10.5134C12.2887 10.4048 12.4533 10.3155 12.8378 10.2638C13.2404 10.2096 13.78 10.2083 14.5833 10.2083C15.3867 10.2083 15.9263 10.2096 16.3288 10.2638C16.7134 10.3155 16.878 10.4048 16.9866 10.5134C17.0952 10.622 17.1845 10.7866 17.2362 11.1711C17.2903 11.5737 17.2917 12.1133 17.2917 12.9167V14.5833C17.2917 15.3867 17.2903 15.9263 17.2362 16.3288C17.1845 16.7134 17.0952 16.878 16.9866 16.9866C16.878 17.0952 16.7134 17.1845 16.3288 17.2362C15.9263 17.2903 15.3867 17.2917 14.5833 17.2917C13.78 17.2917 13.2404 17.2903 12.8378 17.2362C12.4533 17.1845 12.2887 17.0952 12.1801 16.9866C12.0715 16.878 11.9821 16.7134 11.9304 16.3288C11.8763 15.9263 11.875 15.3867 11.875 14.5833V12.9167C11.875 12.1133 11.8763 11.5737 11.9304 11.1711C11.9821 10.7866 12.0715 10.622 12.1801 10.5134Z" fill="#737373"/>
<path fill-rule="evenodd" clip-rule="evenodd" d="M13.729 1.45831H15.4377C15.8081 1.45831 16.1173 1.45831 16.3711 1.47562C16.6354 1.49365 16.885 1.53252 17.127 1.63276C17.6885 1.86535 18.1346 2.31148 18.3672 2.873C18.4675 3.11499 18.5063 3.3646 18.5244 3.62885C18.5417 3.88269 18.5417 4.19189 18.5417 4.56227V4.60436C18.5417 4.97475 18.5417 5.28394 18.5244 5.53779C18.5063 5.80204 18.4675 6.05164 18.3672 6.29363C18.1346 6.85515 17.6885 7.30128 17.127 7.53387C16.885 7.63411 16.6354 7.67298 16.3711 7.69101C16.1173 7.70833 15.8081 7.70832 15.4377 7.70832H13.7289C13.3586 7.70832 13.0494 7.70833 12.7955 7.69101C12.5313 7.67298 12.2817 7.63411 12.0397 7.53387C11.4782 7.30128 11.032 6.85515 10.7994 6.29363C10.6992 6.05164 10.6603 5.80204 10.6423 5.53779C10.625 5.28394 10.625 4.97474 10.625 4.60436V4.56227C10.625 4.19189 10.625 3.88269 10.6423 3.62885C10.6603 3.3646 10.6992 3.11499 10.7994 2.873C11.032 2.31148 11.4782 1.86535 12.0397 1.63276C12.2817 1.53252 12.5313 1.49365 12.7955 1.47562C13.0493 1.45831 13.3586 1.45831 13.729 1.45831ZM12.8806 2.72272C12.68 2.73641 12.5823 2.76098 12.518 2.78761C12.2628 2.89333 12.06 3.09612 11.9543 3.35135C11.9277 3.41565 11.9031 3.51333 11.8894 3.71393C11.8753 3.92015 11.875 4.18648 11.875 4.58332C11.875 4.98015 11.8753 5.24648 11.8894 5.4527C11.9031 5.6533 11.9277 5.75098 11.9543 5.81528C12.06 6.07052 12.2628 6.2733 12.518 6.37902C12.5823 6.40566 12.68 6.43022 12.8806 6.44391C13.0868 6.45798 13.3532 6.45832 13.75 6.45832H15.4167C15.8135 6.45832 16.0798 6.45798 16.286 6.44391C16.4866 6.43022 16.5843 6.40566 16.6486 6.37902C16.9039 6.2733 17.1066 6.07052 17.2124 5.81528C17.239 5.75098 17.2636 5.6533 17.2773 5.4527C17.2913 5.24648 17.2917 4.98015 17.2917 4.58332C17.2917 4.18648 17.2913 3.92015 17.2773 3.71393C17.2636 3.51333 17.239 3.41565 17.2124 3.35135C17.1066 3.09612 16.9039 2.89333 16.6486 2.78761C16.5843 2.76098 16.4866 2.73641 16.286 2.72272C16.0798 2.70865 15.8135 2.70832 15.4167 2.70832H13.75C13.3532 2.70832 13.0868 2.70865 12.8806 2.72272Z" fill="#737373"/>
<path fill-rule="evenodd" clip-rule="evenodd" d="M4.14562 12.2916C3.77523 12.2916 3.46603 12.2916 3.21219 12.309C2.94794 12.327 2.69833 12.3659 2.45634 12.4661C1.89482 12.6987 1.44869 13.1448 1.2161 13.7063C1.11587 13.9483 1.077 14.1979 1.05897 14.4622C1.04165 14.716 1.04165 15.0252 1.04166 15.3955V15.4377C1.04165 15.808 1.04165 16.1173 1.05897 16.3711C1.077 16.6354 1.11587 16.885 1.2161 17.127C1.44869 17.6885 1.89482 18.1346 2.45634 18.3672C2.69833 18.4674 2.94794 18.5063 3.21219 18.5243C3.46603 18.5417 3.77523 18.5417 4.14561 18.5417H5.85437C6.22476 18.5417 6.53395 18.5417 6.7878 18.5243C7.05205 18.5063 7.30165 18.4674 7.54364 18.3672C8.10516 18.1346 8.55129 17.6885 8.78388 17.127C8.88412 16.885 8.92299 16.6354 8.94102 16.3711C8.95834 16.1173 8.95833 15.8081 8.95833 15.4377V15.3956C8.95833 15.0252 8.95834 14.716 8.94102 14.4622C8.92299 14.1979 8.88412 13.9483 8.78388 13.7063C8.55129 13.1448 8.10516 12.6987 7.54364 12.4661C7.30165 12.3659 7.05205 12.327 6.7878 12.309C6.53395 12.2916 6.22475 12.2916 5.85437 12.2916H4.14562ZM2.9347 13.6209C2.99899 13.5943 3.09667 13.5697 3.29728 13.5561C3.5035 13.542 3.76982 13.5417 4.16666 13.5417H5.83333C6.23016 13.5417 6.49649 13.542 6.70271 13.5561C6.90331 13.5697 7.00099 13.5943 7.06529 13.6209C7.32053 13.7267 7.52331 13.9295 7.62903 14.1847C7.65567 14.249 7.68023 14.3467 7.69392 14.5473C7.70799 14.7535 7.70833 15.0198 7.70833 15.4167C7.70833 15.8135 7.70799 16.0798 7.69392 16.286C7.68023 16.4866 7.65567 16.5843 7.62903 16.6486C7.52331 16.9039 7.32053 17.1066 7.06529 17.2124C7.00099 17.239 6.90331 17.2636 6.70271 17.2772C6.49649 17.2913 6.23016 17.2917 5.83333 17.2917H4.16666C3.76982 17.2917 3.5035 17.2913 3.29728 17.2772C3.09667 17.2636 2.99899 17.239 2.9347 17.2124C2.67946 17.1066 2.47667 16.9039 2.37095 16.6486C2.34432 16.5843 2.31976 16.4866 2.30607 16.286C2.292 16.0798 2.29166 15.8135 2.29166 15.4167C2.29166 15.0198 2.292 14.7535 2.30607 14.5473C2.31976 14.3467 2.34432 14.249 2.37095 14.1847C2.47667 13.9295 2.67946 13.7267 2.9347 13.6209Z" fill="#737373"/>
</svg>
