<svg width="16" height="16" viewBox="0 0 16 16" fill="none" xmlns="http://www.w3.org/2000/svg">
<g clip-path="url(#clip0_2792_890)">
<path fill-rule="evenodd" clip-rule="evenodd" d="M7.66668 1.83337C4.44502 1.83337 1.83334 4.44505 1.83334 7.66671C1.83334 10.8884 4.44502 13.5 7.66668 13.5C10.8883 13.5 13.5 10.8884 13.5 7.66671C13.5 4.44505 10.8883 1.83337 7.66668 1.83337ZM0.833344 7.66671C0.833344 3.89276 3.89273 0.833374 7.66668 0.833374C11.4406 0.833374 14.5 3.89276 14.5 7.66671C14.5 9.37372 13.8741 10.9345 12.8393 12.1322L15.0202 14.3132C15.2155 14.5084 15.2155 14.825 15.0202 15.0203C14.825 15.2155 14.5084 15.2155 14.3131 15.0203L12.1321 12.8393C10.9345 13.8741 9.37369 14.5 7.66668 14.5C3.89273 14.5 0.833344 11.4407 0.833344 7.66671Z" fill="#737373"/>
</g>
<defs>
<clipPath id="clip0_2792_890">
<rect width="16" height="16" fill="white"/>
</clipPath>
</defs>
</svg>
