<svg width="20" height="20" viewBox="0 0 20 20" fill="none" xmlns="http://www.w3.org/2000/svg">
<path fill-rule="evenodd" clip-rule="evenodd" d="M2.5337 1.91037C2.20806 1.79588 1.85127 1.96705 1.73678 2.29269C1.62229 2.61833 1.79347 2.97512 2.1191 3.08961L2.33678 3.16614C2.89312 3.36174 3.25875 3.49136 3.52778 3.62337C3.78047 3.74735 3.89186 3.84771 3.96525 3.9551C4.04046 4.06517 4.09855 4.21635 4.13132 4.51915C4.16562 4.83598 4.16647 5.24867 4.16647 5.86529L4.16647 8.03335H17.27C17.5454 6.65206 17.6746 5.95037 17.3135 5.48092C16.9435 5.00002 15.6796 5.00002 14.2754 5.00002H5.41026C5.40468 4.77475 5.39411 4.56979 5.37406 4.38463C5.32929 3.97098 5.23228 3.59371 4.99729 3.24985C4.76047 2.90329 4.4456 2.68135 4.07841 2.50118C3.735 2.33268 3.29864 2.17928 2.78487 1.99867L2.5337 1.91037Z" fill="#A5B4FC"/>
<path opacity="0.5" d="M16.8333 10.1562L17.2498 8.13556L17.2702 8.03326H4.16669C4.16669 10.4846 4.21938 11.2936 4.94139 12.0551C5.66339 12.8166 6.82543 12.8166 9.14952 12.8166H13.5686C14.8694 12.8166 15.5199 12.8166 15.9796 12.4419C16.4394 12.0673 16.5707 11.4302 16.8333 10.1562Z" fill="#A5B4FC"/>
<path d="M6.25 15C6.94036 15 7.5 15.5596 7.5 16.25C7.5 16.9404 6.94036 17.5 6.25 17.5C5.55964 17.5 5 16.9404 5 16.25C5 15.5596 5.55964 15 6.25 15Z" fill="#4F46E5"/>
<path d="M13.75 15.0001C14.4404 15.0001 15 15.5597 15 16.2501C15 16.9404 14.4404 17.5001 13.75 17.5001C13.0596 17.5001 12.5 16.9404 12.5 16.2501C12.5 15.5597 13.0596 15.0001 13.75 15.0001Z" fill="#4F46E5"/>
</svg>
