<svg width="20" height="20" viewBox="0 0 20 20" fill="none" xmlns="http://www.w3.org/2000/svg">
<path fill-rule="evenodd" clip-rule="evenodd" d="M5.91559 1.04166C5.95563 1.04168 5.99627 1.0417 6.03751 1.0417H13.9625C14.0037 1.0417 14.0444 1.04168 14.0844 1.04166C14.9317 1.04129 15.5148 1.04103 16.0059 1.21191C16.9334 1.53463 17.6535 2.28101 17.9622 3.22128L17.3684 3.41625L17.9622 3.22128C18.1256 3.71888 18.1253 4.31041 18.125 5.18875C18.125 5.22806 18.125 5.26794 18.125 5.30841V16.9785C18.125 18.1996 16.6858 18.9265 15.738 18.0591C15.6718 17.9985 15.5782 17.9985 15.512 18.0591L15.1094 18.4275C14.3359 19.1353 13.1641 19.1353 12.3906 18.4275C12.0947 18.1568 11.6552 18.1568 11.3594 18.4275C10.5859 19.1353 9.41406 19.1353 8.64057 18.4275C8.34475 18.1568 7.90524 18.1568 7.60942 18.4275C6.83593 19.1353 5.66406 19.1353 4.89057 18.4275L4.48799 18.0591C4.42176 17.9985 4.32823 17.9985 4.262 18.0591C3.31415 18.9265 1.875 18.1996 1.875 16.9785V5.30841C1.875 5.26794 1.87498 5.22806 1.87497 5.18875C1.87465 4.31041 1.87443 3.71888 2.03781 3.22128C2.34653 2.28101 3.06662 1.53463 3.99409 1.21191C4.48519 1.04103 5.0683 1.04129 5.91559 1.04166ZM6.03751 2.2917C5.01994 2.2917 4.66944 2.30043 4.40488 2.39249C3.8554 2.58368 3.41593 3.03103 3.22544 3.61121C3.13287 3.89315 3.125 4.26493 3.125 5.30841V16.9785C3.125 17.0777 3.17493 17.1384 3.23758 17.1673C3.27022 17.1824 3.30214 17.1863 3.32874 17.1828C3.35219 17.1796 3.38253 17.1695 3.41815 17.1369C3.96205 16.6392 4.78794 16.6392 5.33184 17.1369L5.73442 17.5053C6.03024 17.776 6.46974 17.776 6.76557 17.5053C7.53906 16.7975 8.71093 16.7975 9.48442 17.5053C9.78024 17.776 10.2197 17.776 10.5156 17.5053C11.2891 16.7975 12.4609 16.7975 13.2344 17.5053C13.5302 17.776 13.9697 17.776 14.2656 17.5053L14.6681 17.1369C15.212 16.6392 16.0379 16.6392 16.5818 17.1369C16.6175 17.1695 16.6478 17.1796 16.6713 17.1828C16.6979 17.1863 16.7298 17.1824 16.7624 17.1673C16.8251 17.1384 16.875 17.0778 16.875 16.9785V5.30841C16.875 4.26493 16.8671 3.89315 16.7746 3.61121C16.5841 3.03103 16.1446 2.58368 15.5951 2.39249C15.3306 2.30043 14.98 2.2917 13.9625 2.2917H6.03751ZM5.20833 6.25003C5.20833 5.90485 5.48815 5.62503 5.83333 5.62503H6.24999C6.59517 5.62503 6.87499 5.90485 6.87499 6.25003C6.87499 6.59521 6.59517 6.87503 6.24999 6.87503H5.83333C5.48815 6.87503 5.20833 6.59521 5.20833 6.25003ZM8.12499 6.25003C8.12499 5.90485 8.40482 5.62503 8.75 5.62503H14.1667C14.5118 5.62503 14.7917 5.90485 14.7917 6.25003C14.7917 6.59521 14.5118 6.87503 14.1667 6.87503H8.75C8.40482 6.87503 8.12499 6.59521 8.12499 6.25003ZM5.20833 9.16669C5.20833 8.82152 5.48815 8.54169 5.83333 8.54169H6.24999C6.59517 8.54169 6.87499 8.82152 6.87499 9.16669C6.87499 9.51187 6.59517 9.79169 6.24999 9.79169H5.83333C5.48815 9.79169 5.20833 9.51187 5.20833 9.16669ZM8.12499 9.16669C8.12499 8.82152 8.40482 8.54169 8.75 8.54169H14.1667C14.5118 8.54169 14.7917 8.82152 14.7917 9.16669C14.7917 9.51187 14.5118 9.79169 14.1667 9.79169H8.75C8.40482 9.79169 8.12499 9.51187 8.12499 9.16669ZM5.20833 12.0834C5.20833 11.7382 5.48815 11.4584 5.83333 11.4584H6.24999C6.59517 11.4584 6.87499 11.7382 6.87499 12.0834C6.87499 12.4285 6.59517 12.7084 6.24999 12.7084H5.83333C5.48815 12.7084 5.20833 12.4285 5.20833 12.0834ZM8.12499 12.0834C8.12499 11.7382 8.40482 11.4584 8.75 11.4584H14.1667C14.5118 11.4584 14.7917 11.7382 14.7917 12.0834C14.7917 12.4285 14.5118 12.7084 14.1667 12.7084H8.75C8.40482 12.7084 8.12499 12.4285 8.12499 12.0834Z" fill="#737373"/>
</svg>
