<svg width="20" height="20" viewBox="0 0 20 20" fill="none" xmlns="http://www.w3.org/2000/svg">
<g id="Icon / Left">
<g id="Vector">
<path fill-rule="evenodd" clip-rule="evenodd" d="M7.49999 5.20831C6.23434 5.20831 5.20832 6.23433 5.20832 7.49998C5.20832 8.76563 6.23434 9.79165 7.49999 9.79165C8.76564 9.79165 9.79166 8.76563 9.79166 7.49998C9.79166 6.23433 8.76564 5.20831 7.49999 5.20831ZM6.45832 7.49998C6.45832 6.92468 6.92469 6.45831 7.49999 6.45831C8.07529 6.45831 8.54166 6.92468 8.54166 7.49998C8.54166 8.07528 8.07529 8.54165 7.49999 8.54165C6.92469 8.54165 6.45832 8.07528 6.45832 7.49998Z" fill="#737373"/>
<path fill-rule="evenodd" clip-rule="evenodd" d="M7.49999 10.2083C6.50353 10.2083 5.5705 10.4089 4.86346 10.7625C4.1938 11.0973 3.54166 11.6755 3.54166 12.5L3.54155 12.552C3.54027 12.9773 3.53812 13.6935 4.21685 14.1848C4.53181 14.4128 4.9474 14.5582 5.46223 14.6508C5.98183 14.7443 6.64767 14.7916 7.49999 14.7916C8.35231 14.7916 9.01815 14.7443 9.53775 14.6508C10.0526 14.5582 10.4682 14.4128 10.7831 14.1848C11.4619 13.6935 11.4597 12.9773 11.4584 12.552L11.4583 12.5C11.4583 11.6755 10.8062 11.0973 10.1365 10.7625C9.42948 10.4089 8.49645 10.2083 7.49999 10.2083ZM4.79166 12.5C4.79166 12.404 4.8857 12.1489 5.42248 11.8805C5.92187 11.6308 6.65551 11.4583 7.49999 11.4583C8.34448 11.4583 9.07811 11.6308 9.5775 11.8805C10.1143 12.1489 10.2083 12.404 10.2083 12.5C10.2083 13.0037 10.1763 13.081 10.0502 13.1722C9.94848 13.2458 9.73907 13.3445 9.3164 13.4205C8.89849 13.4957 8.31433 13.5416 7.49999 13.5416C6.68565 13.5416 6.10149 13.4957 5.68358 13.4205C5.26091 13.3445 5.05151 13.2458 4.9498 13.1722C4.82373 13.081 4.79166 13.0037 4.79166 12.5Z" fill="#737373"/>
<path d="M15.8333 10.625C16.1785 10.625 16.4583 10.3452 16.4583 9.99998C16.4583 9.6548 16.1785 9.37498 15.8333 9.37498H12.5C12.1548 9.37498 11.875 9.6548 11.875 9.99998C11.875 10.3452 12.1548 10.625 12.5 10.625H15.8333Z" fill="#737373"/>
<path d="M16.4583 7.49998C16.4583 7.84516 16.1785 8.12498 15.8333 8.12498H11.6667C11.3215 8.12498 11.0417 7.84516 11.0417 7.49998C11.0417 7.1548 11.3215 6.87498 11.6667 6.87498H15.8333C16.1785 6.87498 16.4583 7.1548 16.4583 7.49998Z" fill="#737373"/>
<path d="M15.8333 13.125C16.1785 13.125 16.4583 12.8452 16.4583 12.5C16.4583 12.1548 16.1785 11.875 15.8333 11.875H13.3333C12.9881 11.875 12.7083 12.1548 12.7083 12.5C12.7083 12.8452 12.9881 13.125 13.3333 13.125H15.8333Z" fill="#737373"/>
<path fill-rule="evenodd" clip-rule="evenodd" d="M8.28631 2.70831H11.7137C13.2451 2.7083 14.4582 2.70829 15.4075 2.83593C16.3845 2.96728 17.1753 3.24405 17.799 3.86768C18.4226 4.49132 18.6994 5.28211 18.8307 6.25913C18.9583 7.20847 18.9583 8.42148 18.9583 9.95293V10.047C18.9583 11.5784 18.9583 12.7915 18.8307 13.7408C18.6994 14.7179 18.4226 15.5086 17.799 16.1323C17.1753 16.7559 16.3845 17.0327 15.4075 17.164C14.4582 17.2917 13.2452 17.2917 11.7137 17.2916H8.28631C6.75486 17.2917 5.54181 17.2917 4.59247 17.164C3.61545 17.0327 2.82466 16.7559 2.20103 16.1323C1.57739 15.5086 1.30063 14.7179 1.16927 13.7408C1.04163 12.7915 1.04164 11.5785 1.04166 10.047V9.95297C1.04164 8.42151 1.04163 7.20847 1.16927 6.25913C1.30063 5.28211 1.57739 4.49132 2.20103 3.86768C2.82466 3.24405 3.61545 2.96728 4.59247 2.83593C5.54181 2.70829 6.75485 2.7083 8.28631 2.70831ZM4.75903 4.07478C3.92062 4.1875 3.43758 4.39889 3.08491 4.75157C2.73224 5.10424 2.52084 5.58728 2.40812 6.42569C2.29298 7.28208 2.29166 8.41096 2.29166 9.99998C2.29166 11.589 2.29298 12.7179 2.40812 13.5743C2.52084 14.4127 2.73224 14.8957 3.08491 15.2484C3.43758 15.6011 3.92062 15.8125 4.75903 15.9252C5.61542 16.0403 6.74431 16.0416 8.33332 16.0416H11.6667C13.2557 16.0416 14.3846 16.0403 15.2409 15.9252C16.0794 15.8125 16.5624 15.6011 16.9151 15.2484C17.2677 14.8957 17.4791 14.4127 17.5919 13.5743C17.707 12.7179 17.7083 11.589 17.7083 9.99998C17.7083 8.41096 17.707 7.28208 17.5919 6.42569C17.4791 5.58728 17.2677 5.10424 16.9151 4.75157C16.5624 4.39889 16.0794 4.1875 15.2409 4.07478C14.3846 3.95964 13.2557 3.95831 11.6667 3.95831H8.33332C6.74431 3.95831 5.61542 3.95964 4.75903 4.07478Z" fill="#737373"/>
</g>
</g>
</svg>
