<svg width="20" height="20" viewBox="0 0 20 20" fill="none" xmlns="http://www.w3.org/2000/svg">
<path opacity="0.5" d="M6.03751 1.66669H13.9625C14.9282 1.66669 15.4111 1.66669 15.8005 1.80219C16.539 2.05915 17.1188 2.65601 17.3684 3.41624C17.5 3.81714 17.5 4.31423 17.5 5.3084V16.9785C17.5 17.6937 16.6792 18.0732 16.1599 17.598C15.8549 17.3189 15.3951 17.3189 15.0901 17.598L14.6875 17.9664C14.1528 18.4557 13.3472 18.4557 12.8125 17.9664C12.2778 17.4772 11.4722 17.4772 10.9375 17.9664C10.4028 18.4557 9.59716 18.4557 9.0625 17.9664C8.52784 17.4772 7.72216 17.4772 7.1875 17.9664C6.65284 18.4557 5.84716 18.4557 5.3125 17.9664L4.90992 17.598C4.60486 17.3189 4.14514 17.3189 3.84008 17.598C3.32083 18.0732 2.5 17.6937 2.5 16.9785V5.3084C2.5 4.31423 2.5 3.81714 2.63163 3.41624C2.88123 2.65601 3.46102 2.05915 4.19949 1.80219C4.58892 1.66669 5.07179 1.66669 6.03751 1.66669Z" fill="#A5B4FC"/>
<path d="M5.83331 5.625C5.48813 5.625 5.20831 5.90482 5.20831 6.25C5.20831 6.59518 5.48813 6.875 5.83331 6.875H6.24998C6.59516 6.875 6.87498 6.59518 6.87498 6.25C6.87498 5.90482 6.59516 5.625 6.24998 5.625H5.83331Z" fill="#4F46E5"/>
<path d="M8.74998 5.625C8.4048 5.625 8.12498 5.90482 8.12498 6.25C8.12498 6.59518 8.4048 6.875 8.74998 6.875H14.1666C14.5118 6.875 14.7916 6.59518 14.7916 6.25C14.7916 5.90482 14.5118 5.625 14.1666 5.625H8.74998Z" fill="#4F46E5"/>
<path d="M5.83331 8.54167C5.48813 8.54167 5.20831 8.82149 5.20831 9.16667C5.20831 9.51184 5.48813 9.79167 5.83331 9.79167H6.24998C6.59516 9.79167 6.87498 9.51184 6.87498 9.16667C6.87498 8.82149 6.59516 8.54167 6.24998 8.54167H5.83331Z" fill="#4F46E5"/>
<path d="M8.74998 8.54167C8.4048 8.54167 8.12498 8.82149 8.12498 9.16667C8.12498 9.51184 8.4048 9.79167 8.74998 9.79167H14.1666C14.5118 9.79167 14.7916 9.51184 14.7916 9.16667C14.7916 8.82149 14.5118 8.54167 14.1666 8.54167H8.74998Z" fill="#4F46E5"/>
<path d="M5.83331 11.4583C5.48813 11.4583 5.20831 11.7382 5.20831 12.0833C5.20831 12.4285 5.48813 12.7083 5.83331 12.7083H6.24998C6.59516 12.7083 6.87498 12.4285 6.87498 12.0833C6.87498 11.7382 6.59516 11.4583 6.24998 11.4583H5.83331Z" fill="#4F46E5"/>
<path d="M8.74998 11.4583C8.4048 11.4583 8.12498 11.7382 8.12498 12.0833C8.12498 12.4285 8.4048 12.7083 8.74998 12.7083H14.1666C14.5118 12.7083 14.7916 12.4285 14.7916 12.0833C14.7916 11.7382 14.5118 11.4583 14.1666 11.4583H8.74998Z" fill="#4F46E5"/>
</svg>
