<svg width="18" height="18" viewBox="0 0 18 18" fill="none" xmlns="http://www.w3.org/2000/svg">
<g id="Group 228">
<path id="Vector" d="M17.0953 5.11026C17.2924 4.91261 17.6379 4.70277 17.6321 4.50618C17.6268 4.30005 17.2691 4.11352 17.0884 3.89891C16.9347 3.71662 16.8409 3.71238 16.6661 3.89202C15.8744 4.70595 15.0589 5.49762 14.2661 6.31102C14.0992 6.48218 14.0075 6.46946 13.865 6.30254C13.7135 6.12609 13.5455 5.96288 13.3711 5.80867C13.2514 5.70269 13.2699 5.63646 13.3764 5.5363C13.6096 5.31693 13.8316 5.08536 14.0579 4.85909C15.2115 3.7055 16.3619 2.54925 17.5219 1.40255C17.6686 1.25735 17.6739 1.17522 17.5197 1.04327C17.3438 0.892251 17.1758 0.726921 17.0264 0.549405C16.8971 0.395733 16.8208 0.430177 16.6947 0.556823C15.4833 1.77719 14.2672 2.99278 13.0484 4.20572C12.8386 4.4145 12.6468 4.7865 12.4041 4.77696C12.1873 4.76795 11.9966 4.39861 11.7735 4.21367C11.5917 4.06265 11.6384 3.97416 11.7846 3.83161C12.4443 3.18725 13.0929 2.53124 13.7442 1.8784C13.9556 1.66591 14.3197 1.45554 14.3297 1.23086C14.3419 0.974385 13.9365 0.795808 13.7442 0.556293C13.6085 0.387784 13.5259 0.424878 13.3892 0.563182C11.7533 2.20853 10.1128 3.85016 8.46584 5.4849C8.32012 5.6301 8.32436 5.69951 8.46849 5.841C9.29302 6.65016 10.1064 7.47044 10.9225 8.28861C11.1413 8.50746 11.526 8.73214 11.5265 8.9547C11.5271 9.23343 11.1116 9.42101 10.9007 9.67112C10.8075 9.78134 10.746 9.77499 10.6522 9.67218C10.4885 9.49308 10.2961 9.33888 10.1435 9.15182C9.98878 8.96212 9.8828 8.99656 9.7429 9.16242C9.61202 9.31768 9.46735 9.46499 9.3105 9.59376C9.1367 9.73683 9.13246 9.8391 9.30785 9.99119C9.52617 10.1814 9.87114 10.3971 9.87962 10.6133C9.88916 10.8533 9.49756 11.0282 9.31421 11.2598C9.1669 11.4463 9.07682 11.3986 8.93533 11.2513C8.45948 10.7548 7.96985 10.272 7.47281 9.77128C6.95615 10.2922 6.45381 10.7924 5.961 11.3011C5.85555 11.4097 5.79673 11.4129 5.68916 11.3038C4.95895 10.5645 4.22504 9.82957 3.48477 9.10042C3.37031 8.98755 3.38409 8.92502 3.49219 8.82593C3.67765 8.65583 3.85941 8.47885 4.02686 8.2902C4.1392 8.16356 4.20755 8.17362 4.32201 8.29126C4.7613 8.7438 5.21649 9.1815 5.65471 9.63562C5.78242 9.76757 5.8529 9.78081 5.99014 9.64039C6.68908 8.92555 7.39491 8.21655 8.1124 7.51973C8.27932 7.35758 8.26766 7.27544 8.10922 7.11753C5.8725 4.89195 3.64321 2.65894 1.41179 0.427527C1.39113 0.406861 1.36781 0.388844 1.35086 0.365529C1.26077 0.241002 1.18235 0.245241 1.07796 0.361289C0.915277 0.541456 0.748358 0.721092 0.561833 0.874234C0.386965 1.01784 0.41664 1.10103 0.565542 1.24887C1.98621 2.65682 3.39521 4.0759 4.81588 5.48385C4.96213 5.62904 4.9828 5.69793 4.82277 5.85531C3.55842 7.10322 2.30521 8.3628 1.04987 9.62025C0.832083 9.83804 0.622242 10.0633 0.408691 10.2853C0.63231 10.5137 0.861227 10.7378 1.07796 10.9731C1.18129 11.0854 1.24541 11.0876 1.35404 10.9742C1.68257 10.6302 2.02913 10.3038 2.35767 9.95939C2.48061 9.8301 2.56062 9.79035 2.6931 9.94985C2.84147 10.1284 3.00839 10.2948 3.18643 10.4443C3.34275 10.5751 3.3099 10.6557 3.1806 10.7834C2.45411 11.4988 1.73556 12.2215 1.01596 12.9433C0.810357 13.1494 0.459032 13.3534 0.448964 13.5707C0.437836 13.816 0.829433 13.9893 1.01384 14.2209C1.1638 14.4084 1.26024 14.3724 1.41338 14.2161C2.27129 13.3439 3.14404 12.4865 4.00142 11.6137C4.14662 11.4659 4.23087 11.4627 4.36017 11.6185C4.48363 11.7674 4.62194 11.9078 4.7719 12.0297C4.96478 12.1866 4.99234 12.2994 4.78356 12.4838C4.4423 12.7854 4.13655 13.1266 3.80907 13.444C3.71316 13.5368 3.69249 13.5977 3.80165 13.6978C4.00195 13.8812 4.19643 14.0725 4.37818 14.2744C4.48469 14.3931 4.54828 14.3766 4.65055 14.2712C4.98068 13.9289 5.33041 13.6051 5.65312 13.2559C5.79885 13.098 5.88098 13.1155 6.00763 13.2654C6.14487 13.4281 6.29536 13.5839 6.46016 13.7175C6.64404 13.8664 6.61542 13.9623 6.45698 14.1175C5.58424 14.9749 4.72686 15.8477 3.85464 16.705C3.70839 16.8492 3.70627 16.9276 3.8557 17.0654C4.07508 17.2673 4.27061 17.4962 4.5096 17.75C4.60392 17.634 4.66486 17.5439 4.7401 17.4686C6.13904 16.067 7.54222 14.6692 8.93692 13.2628C9.07682 13.1213 9.1563 13.0964 9.2909 13.2586C9.43291 13.4297 9.594 13.5882 9.76357 13.7323C9.91883 13.8642 9.91353 13.9501 9.76675 14.0937C9.05191 14.7926 8.34661 15.5016 7.64343 16.2128C7.42829 16.4305 7.03405 16.6351 7.05418 16.8757C7.07432 17.1146 7.4479 17.3192 7.65509 17.5497C7.76425 17.671 7.83526 17.6774 7.95237 17.5539C8.27349 17.2164 8.6158 16.8984 8.9348 16.5593C9.0694 16.4157 9.15259 16.3966 9.29514 16.5519C9.60354 16.8879 9.93208 17.2047 10.2776 17.555C10.3867 17.4358 10.4832 17.3282 10.5817 17.2233C10.7407 17.0548 11.0168 16.8969 11.0311 16.7172C11.048 16.5069 10.7396 16.3675 10.5791 16.1916C10.3836 15.9775 10.0216 15.7788 10.0153 15.5647C10.0073 15.3156 10.3968 15.1413 10.5854 14.9097C10.7206 14.7449 10.808 14.7741 10.9463 14.9145C11.7639 15.7449 12.5938 16.563 13.4119 17.3923C13.5333 17.5147 13.6032 17.5396 13.7256 17.396C13.8825 17.2122 14.0568 17.0399 14.2396 16.8815C14.3854 16.7554 14.3785 16.677 14.2407 16.5434C13.6838 16.0024 13.139 15.4486 12.5895 14.8991C11.7115 14.0216 10.8329 13.1441 9.93208 12.2433C10.1393 12.0467 10.3507 11.8718 10.5293 11.6689C10.6967 11.4791 10.7995 11.4627 10.994 11.6593C12.8804 13.5627 14.7812 15.4513 16.6687 17.3531C16.8346 17.5206 16.9247 17.5126 17.0635 17.3452C17.187 17.1963 17.3253 17.0564 17.4752 16.934C17.6639 16.7798 17.6787 16.6801 17.4858 16.4904C16.1367 15.1625 14.8077 13.8139 13.4586 12.4854C13.2614 12.291 13.2917 12.1993 13.4692 12.0234C14.822 10.6848 16.1621 9.33358 17.5134 7.99399C17.6559 7.85303 17.6729 7.7709 17.5166 7.63789C17.347 7.49376 17.1891 7.3332 17.0434 7.16522C16.9162 7.01897 16.8346 7.00625 16.6878 7.15727C16.0312 7.83237 15.3604 8.49368 14.6938 9.15871C14.4876 9.36378 14.2651 9.73577 14.0711 9.72253C13.8433 9.70663 13.6483 9.34312 13.4199 9.15341C13.2424 9.0061 13.2773 8.92026 13.4262 8.77347C14.6546 7.55735 15.8744 6.33328 17.0953 5.11026ZM5.07818 7.24471C5.30498 7.0195 5.53019 6.7927 5.75699 6.56749C5.77659 6.54789 5.80415 6.53676 5.83329 6.51821C5.86349 6.54524 5.89264 6.56908 5.91966 6.59505C5.96153 6.63532 6.00286 6.67612 6.04313 6.71852C6.23443 6.91935 6.42519 7.12124 6.61649 7.32207C6.38015 7.56477 6.14328 7.80587 5.90907 8.05016C5.84813 8.11374 5.80044 8.11163 5.74003 8.05016C5.52277 7.82972 5.30233 7.61246 5.08348 7.39308C5.03685 7.34592 5.02413 7.29823 5.07818 7.24471ZM8.13253 12.434C7.91792 12.6418 7.7155 12.9936 7.48393 13.0143C7.24654 13.0355 7.0669 12.638 6.83745 12.4526C6.66789 12.3153 6.66577 12.2184 6.8348 12.0753C7.05524 11.8888 7.24654 11.5237 7.46221 11.5147C7.70649 11.5046 7.88878 11.8829 8.10657 12.0827C8.16804 12.1394 8.21944 12.2067 8.28196 12.2756C8.22368 12.3376 8.18022 12.3879 8.13253 12.434ZM13.1242 10.7288C12.9265 10.927 12.7236 11.1204 12.5323 11.3249C12.4454 11.4182 12.3908 11.4166 12.305 11.3244C12.12 11.1273 11.9298 10.9344 11.7311 10.7511C11.6225 10.6509 11.6087 10.5826 11.7247 10.476C11.96 10.262 12.1757 9.86613 12.412 9.85659C12.6743 9.84599 12.8751 10.2625 13.1147 10.4808C13.156 10.5184 13.1878 10.5661 13.2286 10.6143C13.1883 10.6589 13.1576 10.6954 13.1242 10.7288ZM13.1014 7.46515C12.9239 7.64372 12.7337 7.8117 12.571 8.00247C12.4465 8.14872 12.3776 8.11004 12.2621 7.99293C11.5477 7.26855 10.8303 6.54789 10.1032 5.83623C9.9644 5.70057 9.9697 5.6248 10.1107 5.50875C10.3475 5.31322 10.5272 4.91049 10.7847 4.92427C11.0099 4.93593 11.2181 5.29944 11.4306 5.51087C11.9801 6.05773 12.5275 6.60618 13.0749 7.15462C13.1279 7.20761 13.1761 7.26431 13.2323 7.32578C13.1793 7.38248 13.1417 7.42487 13.1014 7.46515Z" fill="#404040"/>
<path id="Vector_2" d="M10.2739 0.371317C10.5251 0.633618 10.7562 0.881082 10.9957 1.1206C11.0778 1.20273 11.073 1.25307 10.993 1.33256C10.1256 2.19524 9.26077 3.06004 8.39809 3.92748C8.31808 4.00803 8.27198 4.00909 8.19355 3.92536C7.99378 3.7134 7.78818 3.50674 7.57516 3.30803C7.47183 3.21159 7.50786 3.15436 7.58999 3.0754C7.77917 2.89418 7.95562 2.69864 8.14957 2.52325C8.26986 2.41409 8.2778 2.34573 8.15381 2.22756C7.80884 1.90008 7.48295 1.553 7.14011 1.2234C7.02406 1.11159 6.97425 1.04058 7.12474 0.911286C7.35896 0.709924 7.55926 0.333164 7.7993 0.311438C8.04253 0.289182 8.24018 0.689258 8.4638 0.898039C8.6339 1.05701 8.80294 1.21916 8.95661 1.3935C9.07213 1.52491 9.15214 1.54187 9.27455 1.3988C9.42557 1.22234 9.60256 1.06814 9.76577 0.901748C9.92845 0.735359 10.0879 0.56526 10.2739 0.370787V0.371317Z" fill="#404040"/>
<path id="Vector_3" d="M1.22018 17.6865C1.17991 17.6547 1.14017 17.6288 1.10678 17.5959C0.900121 17.3914 0.700348 17.1799 0.487858 16.9823C0.388766 16.8895 0.413141 16.8392 0.497926 16.756C0.967418 16.2939 1.43479 15.8297 1.89475 15.3581C2.00443 15.2458 2.06696 15.2516 2.1687 15.3629C2.35152 15.5632 2.54652 15.7524 2.74312 15.9389C2.8279 16.0194 2.85387 16.0708 2.7553 16.1673C2.27098 16.6416 1.79406 17.1243 1.3145 17.6033C1.28801 17.6298 1.25833 17.6537 1.22071 17.687L1.22018 17.6865Z" fill="#404040"/>
<path id="Vector_4" d="M6.1895 1.89163C5.93144 2.13751 5.68927 2.36007 5.45771 2.59269C5.36921 2.68119 5.31516 2.68543 5.22455 2.59375C4.75506 2.11631 4.28291 1.64152 3.80388 1.17362C3.70055 1.07241 3.7085 1.01306 3.80812 0.920325C4.04181 0.702006 4.26649 0.474148 4.49488 0.25C4.71743 0.46302 4.94105 0.674451 5.16202 0.889061C5.49586 1.21336 5.82811 1.53925 6.1895 1.89269V1.89163Z" fill="#404040"/>
</g>
</svg>
