<svg width="24" height="24" viewBox="0 0 24 24" fill="none" xmlns="http://www.w3.org/2000/svg">
<circle cx="12" cy="12" r="10.75" fill="#6366F1" stroke="white" stroke-width="1.5"/>
<path d="M10.0327 15V14.2386L12.0526 12.2585C12.2457 12.0634 12.4067 11.8902 12.5355 11.7386C12.6643 11.5871 12.7609 11.4403 12.8253 11.2983C12.8897 11.1562 12.9219 11.0047 12.9219 10.8438C12.9219 10.66 12.8802 10.5028 12.7969 10.3722C12.7135 10.2396 12.599 10.1373 12.4531 10.0653C12.3073 9.99337 12.1416 9.95739 11.956 9.95739C11.7647 9.95739 11.5971 9.99716 11.4531 10.0767C11.3092 10.1544 11.1974 10.2652 11.1179 10.4091C11.0402 10.553 11.0014 10.7244 11.0014 10.9233H9.99858C9.99858 10.554 10.0829 10.233 10.2514 9.96023C10.42 9.6875 10.652 9.47633 10.9474 9.3267C11.2448 9.17708 11.5857 9.10227 11.9702 9.10227C12.3603 9.10227 12.7031 9.17519 12.9986 9.32102C13.294 9.46686 13.5232 9.66667 13.6861 9.92045C13.8509 10.1742 13.9332 10.464 13.9332 10.7898C13.9332 11.0076 13.8916 11.2216 13.8082 11.4318C13.7249 11.642 13.5781 11.875 13.3679 12.1307C13.1596 12.3864 12.867 12.696 12.4901 13.0597L11.4872 14.0795V14.1193H14.0213V15H10.0327Z" fill="white"/>
</svg>
